<mxfile host="app.diagrams.net" modified="2024-07-23T18:29:46.624Z" agent="Mozilla/5.0 (Windows NT 10.0; Win64; x64) AppleWebKit/537.36 (KHTML, like Gecko) Chrome/126.0.0.0 Safari/537.36" version="24.7.1" etag="CyhGQZ5iOamJ2gVdQuga" type="github">
  <diagram name="Page-1" id="hTLU3j0FxiPiMCycnknl">
    <mxGraphModel>
      <root>
        <mxCell id="0" />
        <mxCell id="1" parent="0" />
      </root>
    </mxGraphModel>
  </diagram>
</mxfile>
